<mxfile host="Electron" modified="2023-05-01T20:28:02.511Z" agent="Mozilla/5.0 (X11; Linux x86_64) AppleWebKit/537.36 (KHTML, like Gecko) draw.io/21.1.2 Chrome/106.0.5249.199 Electron/21.4.3 Safari/537.36" etag="SL8EAQtxvBjKRxVZeJer" version="21.1.2" type="device">
  <diagram name="Page-1" id="2YBvvXClWsGukQMizWep">
    <mxGraphModel dx="2284" dy="781" grid="1" gridSize="10" guides="1" tooltips="1" connect="1" arrows="1" fold="1" page="1" pageScale="1" pageWidth="850" pageHeight="1100" math="0" shadow="0">
      <root>
        <mxCell id="0" />
        <mxCell id="1" parent="0" />
        <mxCell id="_EzXlRe2JkendjgQV3HR-20" value="" style="rounded=0;whiteSpace=wrap;html=1;fillColor=#f8cecc;strokeColor=none;" parent="1" vertex="1">
          <mxGeometry x="-20" y="1290" width="560" height="100" as="geometry" />
        </mxCell>
        <mxCell id="7N-NiP9JxCAHFGRjl6bu-51" value="" style="rounded=0;whiteSpace=wrap;html=1;strokeColor=#b85450;fillColor=#F8CECC;" parent="1" vertex="1">
          <mxGeometry x="30" y="720" width="510" height="90" as="geometry" />
        </mxCell>
        <mxCell id="7N-NiP9JxCAHFGRjl6bu-17" value="Alternative" style="shape=umlFrame;whiteSpace=wrap;html=1;pointerEvents=0;width=70;height=20;fillColor=none;" parent="1" vertex="1">
          <mxGeometry x="30" y="720" width="510" height="90" as="geometry" />
        </mxCell>
        <mxCell id="7N-NiP9JxCAHFGRjl6bu-5" value="" style="shape=umlLifeline;perimeter=lifelinePerimeter;whiteSpace=wrap;html=1;container=1;dropTarget=0;collapsible=0;recursiveResize=0;outlineConnect=0;portConstraint=eastwest;newEdgeStyle={&quot;edgeStyle&quot;:&quot;elbowEdgeStyle&quot;,&quot;elbow&quot;:&quot;vertical&quot;,&quot;curved&quot;:0,&quot;rounded&quot;:0};participant=umlActor;" parent="1" vertex="1">
          <mxGeometry x="150" y="540" width="20" height="960" as="geometry" />
        </mxCell>
        <mxCell id="7N-NiP9JxCAHFGRjl6bu-11" value="" style="html=1;points=[];perimeter=orthogonalPerimeter;outlineConnect=0;targetShapes=umlLifeline;portConstraint=eastwest;newEdgeStyle={&quot;edgeStyle&quot;:&quot;elbowEdgeStyle&quot;,&quot;elbow&quot;:&quot;vertical&quot;,&quot;curved&quot;:0,&quot;rounded&quot;:0};" parent="7N-NiP9JxCAHFGRjl6bu-5" vertex="1">
          <mxGeometry x="5" y="60" width="10" height="400" as="geometry" />
        </mxCell>
        <mxCell id="8Z1Fk8jEc5lNHTqlbpwz-11" value="" style="html=1;points=[];perimeter=orthogonalPerimeter;outlineConnect=0;targetShapes=umlLifeline;portConstraint=eastwest;newEdgeStyle={&quot;edgeStyle&quot;:&quot;elbowEdgeStyle&quot;,&quot;elbow&quot;:&quot;vertical&quot;,&quot;curved&quot;:0,&quot;rounded&quot;:0};" parent="7N-NiP9JxCAHFGRjl6bu-5" vertex="1">
          <mxGeometry x="5" y="610" width="10" height="330" as="geometry" />
        </mxCell>
        <mxCell id="gMRcC_oGY5RNC6VV0vWH-1" style="edgeStyle=elbowEdgeStyle;rounded=0;orthogonalLoop=1;jettySize=auto;html=1;elbow=vertical;curved=0;" parent="1" source="7N-NiP9JxCAHFGRjl6bu-6" target="7N-NiP9JxCAHFGRjl6bu-5" edge="1">
          <mxGeometry relative="1" as="geometry">
            <Array as="points">
              <mxPoint x="240" y="960" />
            </Array>
          </mxGeometry>
        </mxCell>
        <mxCell id="gMRcC_oGY5RNC6VV0vWH-2" value="Display Account Details&lt;br&gt;(unverified)" style="edgeLabel;html=1;align=center;verticalAlign=middle;resizable=0;points=[];" parent="gMRcC_oGY5RNC6VV0vWH-1" vertex="1" connectable="0">
          <mxGeometry x="0.3612" y="1" relative="1" as="geometry">
            <mxPoint x="27" as="offset" />
          </mxGeometry>
        </mxCell>
        <mxCell id="7N-NiP9JxCAHFGRjl6bu-6" value="Node API&lt;br&gt;POST: /api/signup" style="shape=umlLifeline;perimeter=lifelinePerimeter;whiteSpace=wrap;html=1;container=1;dropTarget=0;collapsible=0;recursiveResize=0;outlineConnect=0;portConstraint=eastwest;newEdgeStyle={&quot;edgeStyle&quot;:&quot;elbowEdgeStyle&quot;,&quot;elbow&quot;:&quot;vertical&quot;,&quot;curved&quot;:0,&quot;rounded&quot;:0};" parent="1" vertex="1">
          <mxGeometry x="265" y="540" width="125" height="470" as="geometry" />
        </mxCell>
        <mxCell id="7N-NiP9JxCAHFGRjl6bu-16" value="" style="html=1;points=[];perimeter=orthogonalPerimeter;outlineConnect=0;targetShapes=umlLifeline;portConstraint=eastwest;newEdgeStyle={&quot;edgeStyle&quot;:&quot;elbowEdgeStyle&quot;,&quot;elbow&quot;:&quot;vertical&quot;,&quot;curved&quot;:0,&quot;rounded&quot;:0};" parent="7N-NiP9JxCAHFGRjl6bu-6" vertex="1">
          <mxGeometry x="57.5" y="60" width="10" height="400" as="geometry" />
        </mxCell>
        <mxCell id="8Z1Fk8jEc5lNHTqlbpwz-6" style="edgeStyle=elbowEdgeStyle;rounded=0;orthogonalLoop=1;jettySize=auto;html=1;elbow=vertical;curved=0;" parent="1" source="7N-NiP9JxCAHFGRjl6bu-7" target="7N-NiP9JxCAHFGRjl6bu-6" edge="1">
          <mxGeometry relative="1" as="geometry">
            <Array as="points">
              <mxPoint x="420" y="870" />
            </Array>
          </mxGeometry>
        </mxCell>
        <mxCell id="8Z1Fk8jEc5lNHTqlbpwz-7" value="Return Account Data&lt;br&gt;(unverified)" style="edgeLabel;html=1;align=center;verticalAlign=middle;resizable=0;points=[];" parent="8Z1Fk8jEc5lNHTqlbpwz-6" vertex="1" connectable="0">
          <mxGeometry x="0.1768" y="2" relative="1" as="geometry">
            <mxPoint x="15" y="-1" as="offset" />
          </mxGeometry>
        </mxCell>
        <mxCell id="7N-NiP9JxCAHFGRjl6bu-7" value="Node API&lt;br&gt;Controller" style="shape=umlLifeline;perimeter=lifelinePerimeter;whiteSpace=wrap;html=1;container=1;dropTarget=0;collapsible=0;recursiveResize=0;outlineConnect=0;portConstraint=eastwest;newEdgeStyle={&quot;edgeStyle&quot;:&quot;elbowEdgeStyle&quot;,&quot;elbow&quot;:&quot;vertical&quot;,&quot;curved&quot;:0,&quot;rounded&quot;:0};" parent="1" vertex="1">
          <mxGeometry x="450" y="540" width="100" height="470" as="geometry" />
        </mxCell>
        <mxCell id="7N-NiP9JxCAHFGRjl6bu-26" value="" style="html=1;points=[];perimeter=orthogonalPerimeter;outlineConnect=0;targetShapes=umlLifeline;portConstraint=eastwest;newEdgeStyle={&quot;edgeStyle&quot;:&quot;elbowEdgeStyle&quot;,&quot;elbow&quot;:&quot;vertical&quot;,&quot;curved&quot;:0,&quot;rounded&quot;:0};" parent="7N-NiP9JxCAHFGRjl6bu-7" vertex="1">
          <mxGeometry x="45" y="130" width="10" height="220" as="geometry" />
        </mxCell>
        <mxCell id="7N-NiP9JxCAHFGRjl6bu-19" value="&lt;font style=&quot;font-size: 10px;&quot;&gt;[if account data is invalid]&lt;/font&gt;" style="text;html=1;align=center;verticalAlign=middle;resizable=0;points=[];autosize=1;strokeColor=none;fillColor=none;" parent="1" vertex="1">
          <mxGeometry x="20" y="750" width="140" height="30" as="geometry" />
        </mxCell>
        <mxCell id="7N-NiP9JxCAHFGRjl6bu-28" style="edgeStyle=elbowEdgeStyle;rounded=0;orthogonalLoop=1;jettySize=auto;html=1;elbow=vertical;curved=0;labelBackgroundColor=#FFFFFF;" parent="1" source="7N-NiP9JxCAHFGRjl6bu-16" target="7N-NiP9JxCAHFGRjl6bu-7" edge="1">
          <mxGeometry relative="1" as="geometry">
            <Array as="points">
              <mxPoint x="360" y="690" />
              <mxPoint x="420" y="680" />
            </Array>
          </mxGeometry>
        </mxCell>
        <mxCell id="7N-NiP9JxCAHFGRjl6bu-33" value="Validate Account Data" style="edgeLabel;html=1;align=center;verticalAlign=middle;resizable=0;points=[];labelBackgroundColor=#FFFFFF;" parent="7N-NiP9JxCAHFGRjl6bu-28" vertex="1" connectable="0">
          <mxGeometry x="-0.0706" y="-3" relative="1" as="geometry">
            <mxPoint y="-3" as="offset" />
          </mxGeometry>
        </mxCell>
        <mxCell id="7N-NiP9JxCAHFGRjl6bu-29" style="edgeStyle=elbowEdgeStyle;rounded=0;orthogonalLoop=1;jettySize=auto;html=1;elbow=vertical;curved=0;" parent="1" source="7N-NiP9JxCAHFGRjl6bu-11" target="7N-NiP9JxCAHFGRjl6bu-6" edge="1">
          <mxGeometry relative="1" as="geometry">
            <Array as="points">
              <mxPoint x="240" y="660" />
              <mxPoint x="230" y="660" />
            </Array>
          </mxGeometry>
        </mxCell>
        <mxCell id="7N-NiP9JxCAHFGRjl6bu-32" value="Send Account Data" style="edgeLabel;html=1;align=center;verticalAlign=middle;resizable=0;points=[];labelBackgroundColor=#FFFFFF;" parent="7N-NiP9JxCAHFGRjl6bu-29" vertex="1" connectable="0">
          <mxGeometry x="-0.3754" y="2" relative="1" as="geometry">
            <mxPoint x="28" as="offset" />
          </mxGeometry>
        </mxCell>
        <mxCell id="7N-NiP9JxCAHFGRjl6bu-30" style="edgeStyle=elbowEdgeStyle;rounded=0;orthogonalLoop=1;jettySize=auto;html=1;elbow=vertical;curved=0;" parent="1" source="7N-NiP9JxCAHFGRjl6bu-26" target="7N-NiP9JxCAHFGRjl6bu-6" edge="1">
          <mxGeometry relative="1" as="geometry">
            <Array as="points">
              <mxPoint x="450" y="750" />
              <mxPoint x="370" y="720" />
            </Array>
          </mxGeometry>
        </mxCell>
        <mxCell id="7N-NiP9JxCAHFGRjl6bu-34" value="Data is Invalid" style="edgeLabel;html=1;align=center;verticalAlign=middle;resizable=0;points=[];labelBackgroundColor=#F8CECC;" parent="7N-NiP9JxCAHFGRjl6bu-30" vertex="1" connectable="0">
          <mxGeometry x="0.2003" relative="1" as="geometry">
            <mxPoint x="23" as="offset" />
          </mxGeometry>
        </mxCell>
        <mxCell id="7N-NiP9JxCAHFGRjl6bu-31" style="edgeStyle=elbowEdgeStyle;rounded=0;orthogonalLoop=1;jettySize=auto;html=1;elbow=vertical;curved=0;" parent="1" source="7N-NiP9JxCAHFGRjl6bu-16" target="7N-NiP9JxCAHFGRjl6bu-5" edge="1">
          <mxGeometry relative="1" as="geometry">
            <Array as="points">
              <mxPoint x="280" y="780" />
              <mxPoint x="260" y="750" />
            </Array>
          </mxGeometry>
        </mxCell>
        <mxCell id="7N-NiP9JxCAHFGRjl6bu-35" value="Error Message" style="edgeLabel;html=1;align=center;verticalAlign=middle;resizable=0;points=[];labelBackgroundColor=#F8CECC;" parent="7N-NiP9JxCAHFGRjl6bu-31" vertex="1" connectable="0">
          <mxGeometry x="0.2816" y="1" relative="1" as="geometry">
            <mxPoint x="27" as="offset" />
          </mxGeometry>
        </mxCell>
        <mxCell id="8Z1Fk8jEc5lNHTqlbpwz-5" value="EmailService" style="shape=umlLifeline;perimeter=lifelinePerimeter;whiteSpace=wrap;html=1;container=1;dropTarget=0;collapsible=0;recursiveResize=0;outlineConnect=0;portConstraint=eastwest;newEdgeStyle={&quot;edgeStyle&quot;:&quot;elbowEdgeStyle&quot;,&quot;elbow&quot;:&quot;vertical&quot;,&quot;curved&quot;:0,&quot;rounded&quot;:0};" parent="1" vertex="1">
          <mxGeometry x="650" y="540" width="100" height="670" as="geometry" />
        </mxCell>
        <mxCell id="8Z1Fk8jEc5lNHTqlbpwz-8" value="" style="html=1;points=[];perimeter=orthogonalPerimeter;outlineConnect=0;targetShapes=umlLifeline;portConstraint=eastwest;newEdgeStyle={&quot;edgeStyle&quot;:&quot;elbowEdgeStyle&quot;,&quot;elbow&quot;:&quot;vertical&quot;,&quot;curved&quot;:0,&quot;rounded&quot;:0};" parent="8Z1Fk8jEc5lNHTqlbpwz-5" vertex="1">
          <mxGeometry x="45" y="280" width="10" height="380" as="geometry" />
        </mxCell>
        <mxCell id="8Z1Fk8jEc5lNHTqlbpwz-9" style="edgeStyle=elbowEdgeStyle;rounded=0;orthogonalLoop=1;jettySize=auto;html=1;elbow=vertical;curved=0;" parent="1" source="7N-NiP9JxCAHFGRjl6bu-26" target="8Z1Fk8jEc5lNHTqlbpwz-5" edge="1">
          <mxGeometry relative="1" as="geometry">
            <Array as="points">
              <mxPoint x="580" y="840" />
            </Array>
          </mxGeometry>
        </mxCell>
        <mxCell id="8Z1Fk8jEc5lNHTqlbpwz-10" value="Send Account Verification Email" style="edgeLabel;html=1;align=center;verticalAlign=middle;resizable=0;points=[];" parent="8Z1Fk8jEc5lNHTqlbpwz-9" vertex="1" connectable="0">
          <mxGeometry x="-0.1519" y="-2" relative="1" as="geometry">
            <mxPoint x="11" y="-2" as="offset" />
          </mxGeometry>
        </mxCell>
        <mxCell id="8Z1Fk8jEc5lNHTqlbpwz-12" style="edgeStyle=elbowEdgeStyle;rounded=0;orthogonalLoop=1;jettySize=auto;html=1;elbow=vertical;curved=0;" parent="1" source="8Z1Fk8jEc5lNHTqlbpwz-8" target="7N-NiP9JxCAHFGRjl6bu-5" edge="1">
          <mxGeometry relative="1" as="geometry">
            <Array as="points">
              <mxPoint x="660" y="1170" />
              <mxPoint x="400" y="1130" />
            </Array>
          </mxGeometry>
        </mxCell>
        <mxCell id="8Z1Fk8jEc5lNHTqlbpwz-13" value="Send Email with Account verification URL" style="edgeLabel;html=1;align=center;verticalAlign=middle;resizable=0;points=[];" parent="8Z1Fk8jEc5lNHTqlbpwz-12" vertex="1" connectable="0">
          <mxGeometry x="0.0383" relative="1" as="geometry">
            <mxPoint x="83" as="offset" />
          </mxGeometry>
        </mxCell>
        <mxCell id="_EzXlRe2JkendjgQV3HR-6" value="Alternative" style="shape=umlFrame;whiteSpace=wrap;html=1;pointerEvents=0;width=70;height=20;fillColor=none;" parent="1" vertex="1">
          <mxGeometry x="-20" y="1290" width="560" height="100" as="geometry" />
        </mxCell>
        <mxCell id="_EzXlRe2JkendjgQV3HR-7" value="Node API&lt;br&gt;Controller" style="shape=umlLifeline;perimeter=lifelinePerimeter;whiteSpace=wrap;html=1;container=1;dropTarget=0;collapsible=0;recursiveResize=0;outlineConnect=0;portConstraint=eastwest;newEdgeStyle={&quot;edgeStyle&quot;:&quot;elbowEdgeStyle&quot;,&quot;elbow&quot;:&quot;vertical&quot;,&quot;curved&quot;:0,&quot;rounded&quot;:0};" parent="1" vertex="1">
          <mxGeometry x="450" y="1060" width="100" height="440" as="geometry" />
        </mxCell>
        <mxCell id="_EzXlRe2JkendjgQV3HR-8" value="" style="html=1;points=[];perimeter=orthogonalPerimeter;outlineConnect=0;targetShapes=umlLifeline;portConstraint=eastwest;newEdgeStyle={&quot;edgeStyle&quot;:&quot;elbowEdgeStyle&quot;,&quot;elbow&quot;:&quot;vertical&quot;,&quot;curved&quot;:0,&quot;rounded&quot;:0};" parent="_EzXlRe2JkendjgQV3HR-7" vertex="1">
          <mxGeometry x="45" y="130" width="10" height="290" as="geometry" />
        </mxCell>
        <mxCell id="_EzXlRe2JkendjgQV3HR-23" style="edgeStyle=elbowEdgeStyle;rounded=0;orthogonalLoop=1;jettySize=auto;html=1;elbow=vertical;curved=0;" parent="1" source="_EzXlRe2JkendjgQV3HR-1" target="7N-NiP9JxCAHFGRjl6bu-5" edge="1">
          <mxGeometry relative="1" as="geometry">
            <Array as="points">
              <mxPoint x="270" y="1450" />
            </Array>
          </mxGeometry>
        </mxCell>
        <mxCell id="_EzXlRe2JkendjgQV3HR-24" value="Account Verified&lt;br&gt;Return AccessToken" style="edgeLabel;html=1;align=center;verticalAlign=middle;resizable=0;points=[];" parent="_EzXlRe2JkendjgQV3HR-23" vertex="1" connectable="0">
          <mxGeometry x="0.0402" relative="1" as="geometry">
            <mxPoint as="offset" />
          </mxGeometry>
        </mxCell>
        <mxCell id="_EzXlRe2JkendjgQV3HR-1" value="Node API&lt;br&gt;GET: /api/verify-account" style="shape=umlLifeline;perimeter=lifelinePerimeter;whiteSpace=wrap;html=1;container=1;dropTarget=0;collapsible=0;recursiveResize=0;outlineConnect=0;portConstraint=eastwest;newEdgeStyle={&quot;edgeStyle&quot;:&quot;elbowEdgeStyle&quot;,&quot;elbow&quot;:&quot;vertical&quot;,&quot;curved&quot;:0,&quot;rounded&quot;:0};" parent="1" vertex="1">
          <mxGeometry x="278" y="1060" width="142" height="440" as="geometry" />
        </mxCell>
        <mxCell id="_EzXlRe2JkendjgQV3HR-2" value="" style="html=1;points=[];perimeter=orthogonalPerimeter;outlineConnect=0;targetShapes=umlLifeline;portConstraint=eastwest;newEdgeStyle={&quot;edgeStyle&quot;:&quot;elbowEdgeStyle&quot;,&quot;elbow&quot;:&quot;vertical&quot;,&quot;curved&quot;:0,&quot;rounded&quot;:0};" parent="_EzXlRe2JkendjgQV3HR-1" vertex="1">
          <mxGeometry x="66" y="130" width="10" height="290" as="geometry" />
        </mxCell>
        <mxCell id="_EzXlRe2JkendjgQV3HR-3" style="edgeStyle=elbowEdgeStyle;rounded=0;orthogonalLoop=1;jettySize=auto;html=1;elbow=vertical;curved=0;" parent="1" source="8Z1Fk8jEc5lNHTqlbpwz-11" target="_EzXlRe2JkendjgQV3HR-1" edge="1">
          <mxGeometry relative="1" as="geometry">
            <Array as="points">
              <mxPoint x="250" y="1230" />
            </Array>
          </mxGeometry>
        </mxCell>
        <mxCell id="_EzXlRe2JkendjgQV3HR-4" value="Click Account Activation Link" style="edgeLabel;html=1;align=center;verticalAlign=middle;resizable=0;points=[];" parent="_EzXlRe2JkendjgQV3HR-3" vertex="1" connectable="0">
          <mxGeometry x="-0.2807" y="-1" relative="1" as="geometry">
            <mxPoint x="19" y="-1" as="offset" />
          </mxGeometry>
        </mxCell>
        <mxCell id="_EzXlRe2JkendjgQV3HR-9" style="edgeStyle=elbowEdgeStyle;rounded=0;orthogonalLoop=1;jettySize=auto;html=1;elbow=vertical;curved=0;" parent="1" edge="1">
          <mxGeometry relative="1" as="geometry">
            <mxPoint x="352" y="1260" as="sourcePoint" />
            <mxPoint x="497.5" y="1260" as="targetPoint" />
          </mxGeometry>
        </mxCell>
        <mxCell id="_EzXlRe2JkendjgQV3HR-10" value="Verify Account" style="edgeLabel;html=1;align=center;verticalAlign=middle;resizable=0;points=[];" parent="_EzXlRe2JkendjgQV3HR-9" vertex="1" connectable="0">
          <mxGeometry x="-0.1203" y="-1" relative="1" as="geometry">
            <mxPoint as="offset" />
          </mxGeometry>
        </mxCell>
        <mxCell id="_EzXlRe2JkendjgQV3HR-13" style="edgeStyle=elbowEdgeStyle;rounded=0;orthogonalLoop=1;jettySize=auto;html=1;elbow=vertical;curved=0;" parent="1" source="_EzXlRe2JkendjgQV3HR-8" target="_EzXlRe2JkendjgQV3HR-1" edge="1">
          <mxGeometry relative="1" as="geometry">
            <Array as="points">
              <mxPoint x="410" y="1360" />
              <mxPoint x="420" y="1320" />
            </Array>
          </mxGeometry>
        </mxCell>
        <mxCell id="_EzXlRe2JkendjgQV3HR-14" value="Account is Invalid" style="edgeLabel;html=1;align=center;verticalAlign=middle;resizable=0;points=[];labelBackgroundColor=#F8CECC;" parent="_EzXlRe2JkendjgQV3HR-13" vertex="1" connectable="0">
          <mxGeometry x="0.1462" y="-2" relative="1" as="geometry">
            <mxPoint x="13" y="2" as="offset" />
          </mxGeometry>
        </mxCell>
        <mxCell id="_EzXlRe2JkendjgQV3HR-15" style="edgeStyle=elbowEdgeStyle;rounded=0;orthogonalLoop=1;jettySize=auto;html=1;elbow=vertical;curved=0;" parent="1" source="_EzXlRe2JkendjgQV3HR-2" target="7N-NiP9JxCAHFGRjl6bu-5" edge="1">
          <mxGeometry relative="1" as="geometry">
            <Array as="points">
              <mxPoint x="260" y="1360" />
            </Array>
          </mxGeometry>
        </mxCell>
        <mxCell id="_EzXlRe2JkendjgQV3HR-17" value="Error Message" style="edgeLabel;html=1;align=center;verticalAlign=middle;resizable=0;points=[];labelBackgroundColor=#F8CECC;" parent="_EzXlRe2JkendjgQV3HR-15" vertex="1" connectable="0">
          <mxGeometry x="0.2915" relative="1" as="geometry">
            <mxPoint x="25" as="offset" />
          </mxGeometry>
        </mxCell>
        <mxCell id="_EzXlRe2JkendjgQV3HR-19" value="&lt;font style=&quot;font-size: 10px;&quot;&gt;[link/token expired or invalid]&lt;/font&gt;" style="text;html=1;align=center;verticalAlign=middle;resizable=0;points=[];autosize=1;strokeColor=none;fillColor=none;" parent="1" vertex="1">
          <mxGeometry x="-10" y="1330" width="150" height="30" as="geometry" />
        </mxCell>
        <mxCell id="_EzXlRe2JkendjgQV3HR-21" style="edgeStyle=elbowEdgeStyle;rounded=0;orthogonalLoop=1;jettySize=auto;html=1;elbow=vertical;curved=0;" parent="1" source="_EzXlRe2JkendjgQV3HR-7" target="_EzXlRe2JkendjgQV3HR-1" edge="1">
          <mxGeometry relative="1" as="geometry">
            <Array as="points">
              <mxPoint x="430" y="1420" />
            </Array>
          </mxGeometry>
        </mxCell>
        <mxCell id="_EzXlRe2JkendjgQV3HR-22" value="Account is valid" style="edgeLabel;html=1;align=center;verticalAlign=middle;resizable=0;points=[];" parent="_EzXlRe2JkendjgQV3HR-21" vertex="1" connectable="0">
          <mxGeometry x="0.2894" y="1" relative="1" as="geometry">
            <mxPoint x="23" as="offset" />
          </mxGeometry>
        </mxCell>
      </root>
    </mxGraphModel>
  </diagram>
</mxfile>
